<svg xmlns="http://www.w3.org/2000/svg" viewBox="0 0 96.5 75.67"><defs><style>.a{fill:#113fa5;}.b{fill:#1855b7;}.c{fill:#1569ce;}</style></defs><title>epicportfolio-Logo</title><polygon class="a" points="14.2 52.52 45.77 52.52 45.77 43.87 28.99 43.87 21.2 36.1 14.2 36.1 14.2 52.52"/><rect class="a" x="51.62" y="36.1" width="8.65" height="16.42"/><polygon class="b" points="14.2 37.1 45.77 37.1 45.77 28.45 27.99 28.45 20.2 20.69 14.2 20.69 14.2 37.1"/><polygon class="b" points="83.18 29.07 75.44 37.1 51.62 37.1 51.62 28.45 69.4 28.45 77.19 20.69 83.18 20.69 83.18 29.07"/><rect class="c" x="14.2" y="12.31" width="31.57" height="9.69"/><rect class="c" x="51.62" y="12.31" width="31.57" height="9.69"/><path d="M15.24,62.37h2.39v.54H14.28V57.24h3.26v.54h-2.3v1.91h1.88v.54H15.24Z"/><path d="M19.71,57.24h2.53q1.11,0,1.11.72v2q0,.72-1.11.72H20.67v2.28h-1Zm2.69,2.57V58.06c0-.12,0-.2-.08-.23a.79.79,0,0,0-.36-.05h-1.3V60.1H22a.79.79,0,0,0,.36,0C22.38,60,22.4,59.94,22.4,59.81Z"/><path d="M25.57,57.24h1v5.67h-1Z"/><path d="M32.44,58.92h-1v-.86c0-.12,0-.2-.08-.23a.79.79,0,0,0-.35-.05h-.77a.78.78,0,0,0-.36.05c-.05,0-.08.11-.08.23v4a.27.27,0,0,0,.08.23.73.73,0,0,0,.36.05H31a.74.74,0,0,0,.35-.05.26.26,0,0,0,.08-.23v-.86h1v1q0,.72-1.11.72H30q-1.11,0-1.11-.72V58q0-.72,1.11-.72h1.36q1.11,0,1.11.72Z"/><path d="M37.3,57.24h2.53q1.11,0,1.11.72v2q0,.72-1.11.72H38.25v2.28h-1ZM40,59.81V58.06c0-.12,0-.2-.08-.23a.79.79,0,0,0-.36-.05h-1.3V60.1h1.3a.79.79,0,0,0,.36,0C40,60,40,59.94,40,59.81Z"/><path d="M44.16,57.24h1.43q1.11,0,1.11.72v4.23q0,.72-1.11.72H44.16q-1.11,0-1.11-.72V58Q43.05,57.24,44.16,57.24Zm1.58,4.85v-4c0-.12,0-.2-.08-.23a.79.79,0,0,0-.35-.05h-.87a.79.79,0,0,0-.35.05c-.06,0-.08.11-.08.23v4c0,.12,0,.2.08.23a.8.8,0,0,0,.35,0h.87a.8.8,0,0,0,.35,0C45.71,62.29,45.74,62.21,45.74,62.09Z"/><path d="M49.93,60.54v2.37H49V57.24h2.53q1.11,0,1.11.72v1.86q0,.65-.87.71l1.32,2.38H52l-1.27-2.37Zm0-2.76V60h1.3a.77.77,0,0,0,.36-.05c.05,0,.08-.11.08-.23V58.06c0-.12,0-.2-.08-.23a.79.79,0,0,0-.36-.05Z"/><path d="M58.29,57.24v.54h-1.4v5.13h-1V57.78h-1.4v-.54Z"/><path d="M63.66,57.78H61.22v2H63.1v.54H61.22v2.59h-1V57.24h3.4Z"/><path d="M66.7,57.24h1.43q1.11,0,1.11.72v4.23q0,.72-1.11.72H66.7q-1.11,0-1.11-.72V58Q65.59,57.24,66.7,57.24Zm1.58,4.85v-4c0-.12,0-.2-.08-.23a.79.79,0,0,0-.35-.05H67a.79.79,0,0,0-.35.05c-.06,0-.08.11-.08.23v4c0,.12,0,.2.08.23a.8.8,0,0,0,.35,0h.87a.8.8,0,0,0,.35,0C68.25,62.29,68.28,62.21,68.28,62.09Z"/><path d="M72.46,62.37h2v.54h-3V57.24h1Z"/><path d="M76.5,57.24h1v5.67h-1Z"/><path d="M80.91,57.24h1.43q1.11,0,1.11.72v4.23q0,.72-1.11.72H80.91q-1.11,0-1.11-.72V58Q79.8,57.24,80.91,57.24Zm1.58,4.85v-4c0-.12,0-.2-.08-.23a.79.79,0,0,0-.35-.05h-.87a.79.79,0,0,0-.35.05c-.06,0-.08.11-.08.23v4c0,.12,0,.2.08.23a.8.8,0,0,0,.35,0h.87a.8.8,0,0,0,.35,0C82.46,62.29,82.49,62.21,82.49,62.09Z"/></svg>