<?xml version="1.0" encoding="utf-8"?>
<!-- Generator: Adobe Illustrator 21.0.0, SVG Export Plug-In . SVG Version: 6.00 Build 0)  -->
<svg version="1.1" xmlns="http://www.w3.org/2000/svg" xmlns:xlink="http://www.w3.org/1999/xlink" x="0px" y="0px"
     viewBox="0 0 96.5 75.7" style="enable-background:new 0 0 96.5 75.7;" xml:space="preserve">
<style type="text/css">
	.st0{fill:#00558D;}
	.st1{fill:#E8EEF2;}
	.st2{fill:#D1DDE4;}
	.st3{fill:#338DC9;}
	.st4{fill:#0071BC;}
	.st5{fill:#1A1A1A;}
	.st6{fill:#113FA5;}
	.st7{fill:#1855B7;}
	.st8{fill:#1569CE;}
	.st9{fill:#FFFFFF;}
</style>
    <g id="Mockup_1">
</g>
    <g id="Mockup_2">
</g>
    <g id="Mockup_3">
</g>
    <g id="Mockup_4">
</g>
    <g id="Layer_5">
	<polygon class="st6" points="14.2,52.5 45.8,52.5 45.8,43.9 29,43.9 21.2,36.1 14.2,36.1 	"/>
        <rect x="51.6" y="36.1" class="st6" width="8.7" height="16.4"/>
        <polygon class="st7" points="14.2,37.1 45.8,37.1 45.8,28.5 28,28.5 20.2,20.7 14.2,20.7 	"/>
        <polygon class="st7" points="83.2,29.1 75.4,37.1 51.6,37.1 51.6,28.5 69.4,28.5 77.2,20.7 83.2,20.7 	"/>
        <rect x="14.2" y="12.3" class="st8" width="31.6" height="9.7"/>
        <rect x="51.6" y="12.3" class="st8" width="31.6" height="9.7"/>
        <g>
		<path class="st9" d="M15.2,62.4h2.4v0.5h-3.4v-5.7h3.3v0.5h-2.3v1.9h1.9v0.5h-1.9V62.4z"/>
            <path class="st9" d="M19.7,57.2h2.5c0.7,0,1.1,0.2,1.1,0.7v2c0,0.5-0.4,0.7-1.1,0.7h-1.6v2.3h-1V57.2z M22.4,59.8v-1.8
			c0-0.1,0-0.2-0.1-0.2s-0.2-0.1-0.4-0.1h-1.3v2.3H22c0.2,0,0.3,0,0.4,0S22.4,59.9,22.4,59.8z"/>
            <path class="st9" d="M25.6,57.2h1v5.7h-1V57.2z"/>
            <path class="st9" d="M32.4,58.9h-1v-0.9c0-0.1,0-0.2-0.1-0.2c-0.1,0-0.2-0.1-0.4-0.1h-0.8c-0.2,0-0.3,0-0.4,0.1
			c-0.1,0-0.1,0.1-0.1,0.2v4c0,0.1,0,0.2,0.1,0.2c0.1,0,0.2,0.1,0.4,0.1H31c0.2,0,0.3,0,0.4-0.1c0.1,0,0.1-0.1,0.1-0.2v-0.9h1v1
			c0,0.5-0.4,0.7-1.1,0.7H30c-0.7,0-1.1-0.2-1.1-0.7V58c0-0.5,0.4-0.7,1.1-0.7h1.4c0.7,0,1.1,0.2,1.1,0.7V58.9z"/>
            <path class="st9" d="M37.3,57.2h2.5c0.7,0,1.1,0.2,1.1,0.7v2c0,0.5-0.4,0.7-1.1,0.7h-1.6v2.3h-1V57.2z M40,59.8v-1.8
			c0-0.1,0-0.2-0.1-0.2s-0.2-0.1-0.4-0.1h-1.3v2.3h1.3c0.2,0,0.3,0,0.4,0S40,59.9,40,59.8z"/>
            <path class="st9" d="M44.2,57.2h1.4c0.7,0,1.1,0.2,1.1,0.7v4.2c0,0.5-0.4,0.7-1.1,0.7h-1.4c-0.7,0-1.1-0.2-1.1-0.7V58
			C43.1,57.5,43.4,57.2,44.2,57.2z M45.7,62.1v-4c0-0.1,0-0.2-0.1-0.2c-0.1,0-0.2-0.1-0.4-0.1h-0.9c-0.2,0-0.3,0-0.4,0.1
			c-0.1,0-0.1,0.1-0.1,0.2v4c0,0.1,0,0.2,0.1,0.2c0.1,0,0.2,0,0.4,0h0.9c0.2,0,0.3,0,0.4,0C45.7,62.3,45.7,62.2,45.7,62.1z"/>
            <path class="st9" d="M49.9,60.5v2.4h-1v-5.7h2.5c0.7,0,1.1,0.2,1.1,0.7v1.9c0,0.4-0.3,0.7-0.9,0.7l1.3,2.4h-1l-1.3-2.4H49.9z
			 M49.9,57.8V60h1.3c0.2,0,0.3,0,0.4-0.1c0.1,0,0.1-0.1,0.1-0.2v-1.7c0-0.1,0-0.2-0.1-0.2s-0.2-0.1-0.4-0.1H49.9z"/>
            <path class="st9" d="M58.3,57.2v0.5h-1.4v5.1h-1v-5.1h-1.4v-0.5H58.3z"/>
            <path class="st9" d="M63.7,57.8h-2.4v2h1.9v0.5h-1.9v2.6h-1v-5.7h3.4V57.8z"/>
            <path class="st9" d="M66.7,57.2h1.4c0.7,0,1.1,0.2,1.1,0.7v4.2c0,0.5-0.4,0.7-1.1,0.7h-1.4c-0.7,0-1.1-0.2-1.1-0.7V58
			C65.6,57.5,66,57.2,66.7,57.2z M68.3,62.1v-4c0-0.1,0-0.2-0.1-0.2c-0.1,0-0.2-0.1-0.4-0.1H67c-0.2,0-0.3,0-0.4,0.1
			c-0.1,0-0.1,0.1-0.1,0.2v4c0,0.1,0,0.2,0.1,0.2c0.1,0,0.2,0,0.4,0h0.9c0.2,0,0.3,0,0.4,0C68.3,62.3,68.3,62.2,68.3,62.1z"/>
            <path class="st9" d="M72.5,62.4h2v0.5h-3v-5.7h1V62.4z"/>
            <path class="st9" d="M76.5,57.2h1v5.7h-1V57.2z"/>
            <path class="st9" d="M80.9,57.2h1.4c0.7,0,1.1,0.2,1.1,0.7v4.2c0,0.5-0.4,0.7-1.1,0.7h-1.4c-0.7,0-1.1-0.2-1.1-0.7V58
			C79.8,57.5,80.2,57.2,80.9,57.2z M82.5,62.1v-4c0-0.1,0-0.2-0.1-0.2c-0.1,0-0.2-0.1-0.4-0.1h-0.9c-0.2,0-0.3,0-0.4,0.1
			c-0.1,0-0.1,0.1-0.1,0.2v4c0,0.1,0,0.2,0.1,0.2c0.1,0,0.2,0,0.4,0h0.9c0.2,0,0.3,0,0.4,0C82.5,62.3,82.5,62.2,82.5,62.1z"/>
	</g>
</g>
</svg>
